<mxfile host="Electron" agent="Mozilla/5.0 (Windows NT 10.0; Win64; x64) AppleWebKit/537.36 (KHTML, like Gecko) draw.io/24.7.17 Chrome/128.0.6613.36 Electron/32.0.1 Safari/537.36" version="24.7.17">
  <diagram name="Página-1" id="qlfGURjjjB_SgXgHJ2ly">
    <mxGraphModel dx="1050" dy="629" grid="1" gridSize="10" guides="1" tooltips="1" connect="1" arrows="1" fold="1" page="1" pageScale="1" pageWidth="827" pageHeight="1169" math="0" shadow="0">
      <root>
        <mxCell id="0" />
        <mxCell id="1" parent="0" />
        <mxCell id="a_scWwqzRaStGfmflHEY-15" style="edgeStyle=orthogonalEdgeStyle;rounded=0;orthogonalLoop=1;jettySize=auto;html=1;exitX=0.5;exitY=1;exitDx=0;exitDy=0;entryX=0.5;entryY=0;entryDx=0;entryDy=0;shadow=1;" parent="1" source="a_scWwqzRaStGfmflHEY-16" target="a_scWwqzRaStGfmflHEY-19" edge="1">
          <mxGeometry relative="1" as="geometry" />
        </mxCell>
        <mxCell id="a_scWwqzRaStGfmflHEY-16" value="&lt;b&gt;1&lt;/b&gt;" style="ellipse;whiteSpace=wrap;html=1;aspect=fixed;shadow=1;" parent="1" vertex="1">
          <mxGeometry x="339" y="245" width="80" height="80" as="geometry" />
        </mxCell>
        <mxCell id="a_scWwqzRaStGfmflHEY-17" style="edgeStyle=orthogonalEdgeStyle;rounded=0;orthogonalLoop=1;jettySize=auto;html=1;exitX=0.5;exitY=1;exitDx=0;exitDy=0;entryX=0.5;entryY=0;entryDx=0;entryDy=0;shadow=1;" parent="1" source="a_scWwqzRaStGfmflHEY-19" target="a_scWwqzRaStGfmflHEY-21" edge="1">
          <mxGeometry relative="1" as="geometry" />
        </mxCell>
        <mxCell id="a_scWwqzRaStGfmflHEY-18" value="&lt;b&gt;Verdadero&lt;/b&gt;" style="edgeLabel;html=1;align=center;verticalAlign=middle;resizable=0;points=[];shadow=1;" parent="a_scWwqzRaStGfmflHEY-17" vertex="1" connectable="0">
          <mxGeometry x="-0.15" relative="1" as="geometry">
            <mxPoint y="3" as="offset" />
          </mxGeometry>
        </mxCell>
        <mxCell id="a_scWwqzRaStGfmflHEY-19" value="&lt;b&gt;2&lt;/b&gt;" style="ellipse;whiteSpace=wrap;html=1;aspect=fixed;shadow=1;" parent="1" vertex="1">
          <mxGeometry x="339" y="365" width="80" height="80" as="geometry" />
        </mxCell>
        <mxCell id="a_scWwqzRaStGfmflHEY-20" style="edgeStyle=orthogonalEdgeStyle;rounded=0;orthogonalLoop=1;jettySize=auto;html=1;exitX=0.5;exitY=1;exitDx=0;exitDy=0;entryX=0.5;entryY=0;entryDx=0;entryDy=0;shadow=1;" parent="1" source="a_scWwqzRaStGfmflHEY-21" target="a_scWwqzRaStGfmflHEY-31" edge="1">
          <mxGeometry relative="1" as="geometry" />
        </mxCell>
        <mxCell id="a_scWwqzRaStGfmflHEY-21" value="&lt;b&gt;3&lt;/b&gt;" style="ellipse;whiteSpace=wrap;html=1;aspect=fixed;shadow=1;" parent="1" vertex="1">
          <mxGeometry x="339" y="485" width="80" height="80" as="geometry" />
        </mxCell>
        <mxCell id="a_scWwqzRaStGfmflHEY-22" style="edgeStyle=orthogonalEdgeStyle;rounded=0;orthogonalLoop=1;jettySize=auto;html=1;exitX=0.5;exitY=1;exitDx=0;exitDy=0;entryX=0.5;entryY=0;entryDx=0;entryDy=0;shadow=1;" parent="1" source="a_scWwqzRaStGfmflHEY-26" target="a_scWwqzRaStGfmflHEY-27" edge="1">
          <mxGeometry relative="1" as="geometry" />
        </mxCell>
        <mxCell id="a_scWwqzRaStGfmflHEY-23" value="&lt;b&gt;Verdadero&lt;/b&gt;" style="edgeLabel;html=1;align=center;verticalAlign=middle;resizable=0;points=[];shadow=1;" parent="a_scWwqzRaStGfmflHEY-22" vertex="1" connectable="0">
          <mxGeometry x="0.05" y="3" relative="1" as="geometry">
            <mxPoint x="-3" as="offset" />
          </mxGeometry>
        </mxCell>
        <mxCell id="a_scWwqzRaStGfmflHEY-24" style="edgeStyle=orthogonalEdgeStyle;rounded=0;orthogonalLoop=1;jettySize=auto;html=1;exitX=1;exitY=0.5;exitDx=0;exitDy=0;entryX=0;entryY=0.5;entryDx=0;entryDy=0;shadow=1;" parent="1" source="a_scWwqzRaStGfmflHEY-26" target="a_scWwqzRaStGfmflHEY-28" edge="1">
          <mxGeometry relative="1" as="geometry" />
        </mxCell>
        <mxCell id="a_scWwqzRaStGfmflHEY-25" value="&lt;b&gt;Falso&lt;/b&gt;" style="edgeLabel;html=1;align=center;verticalAlign=middle;resizable=0;points=[];shadow=1;" parent="a_scWwqzRaStGfmflHEY-24" vertex="1" connectable="0">
          <mxGeometry x="0.05" y="-2" relative="1" as="geometry">
            <mxPoint y="-2" as="offset" />
          </mxGeometry>
        </mxCell>
        <mxCell id="a_scWwqzRaStGfmflHEY-26" value="&lt;b&gt;5&lt;/b&gt;" style="ellipse;whiteSpace=wrap;html=1;aspect=fixed;shadow=1;" parent="1" vertex="1">
          <mxGeometry x="339" y="725" width="80" height="80" as="geometry" />
        </mxCell>
        <mxCell id="a_scWwqzRaStGfmflHEY-27" value="&lt;b&gt;6&lt;/b&gt;" style="ellipse;whiteSpace=wrap;html=1;aspect=fixed;shadow=1;" parent="1" vertex="1">
          <mxGeometry x="339" y="845" width="80" height="80" as="geometry" />
        </mxCell>
        <mxCell id="a_scWwqzRaStGfmflHEY-28" value="&lt;b&gt;7&lt;/b&gt;" style="ellipse;whiteSpace=wrap;html=1;aspect=fixed;shadow=1;" parent="1" vertex="1">
          <mxGeometry x="499" y="725" width="80" height="80" as="geometry" />
        </mxCell>
        <mxCell id="a_scWwqzRaStGfmflHEY-29" style="edgeStyle=orthogonalEdgeStyle;rounded=0;orthogonalLoop=1;jettySize=auto;html=1;exitX=0.5;exitY=1;exitDx=0;exitDy=0;entryX=0.5;entryY=0;entryDx=0;entryDy=0;shadow=1;" parent="1" source="a_scWwqzRaStGfmflHEY-31" target="a_scWwqzRaStGfmflHEY-26" edge="1">
          <mxGeometry relative="1" as="geometry" />
        </mxCell>
        <mxCell id="a_scWwqzRaStGfmflHEY-30" value="&lt;b&gt;Verdadero&lt;/b&gt;" style="edgeLabel;html=1;align=center;verticalAlign=middle;resizable=0;points=[];shadow=1;" parent="a_scWwqzRaStGfmflHEY-29" vertex="1" connectable="0">
          <mxGeometry x="0.05" y="1" relative="1" as="geometry">
            <mxPoint x="-1" as="offset" />
          </mxGeometry>
        </mxCell>
        <mxCell id="a_scWwqzRaStGfmflHEY-31" value="&lt;b&gt;4&lt;/b&gt;" style="ellipse;whiteSpace=wrap;html=1;aspect=fixed;shadow=1;" parent="1" vertex="1">
          <mxGeometry x="339" y="605" width="80" height="80" as="geometry" />
        </mxCell>
        <mxCell id="a_scWwqzRaStGfmflHEY-32" value="&lt;b&gt;8&lt;/b&gt;" style="ellipse;whiteSpace=wrap;html=1;aspect=fixed;shadow=1;" parent="1" vertex="1">
          <mxGeometry x="159" y="845" width="80" height="80" as="geometry" />
        </mxCell>
        <mxCell id="a_scWwqzRaStGfmflHEY-33" value="" style="curved=1;endArrow=classic;html=1;rounded=0;entryX=1;entryY=0.5;entryDx=0;entryDy=0;shadow=1;" parent="1" target="a_scWwqzRaStGfmflHEY-19" edge="1">
          <mxGeometry width="50" height="50" relative="1" as="geometry">
            <mxPoint x="579" y="765" as="sourcePoint" />
            <mxPoint x="589" y="615" as="targetPoint" />
            <Array as="points">
              <mxPoint x="659" y="435" />
            </Array>
          </mxGeometry>
        </mxCell>
        <mxCell id="a_scWwqzRaStGfmflHEY-34" value="" style="curved=1;endArrow=classic;html=1;rounded=0;exitX=1;exitY=0.5;exitDx=0;exitDy=0;entryX=0.5;entryY=0;entryDx=0;entryDy=0;shadow=1;fontStyle=1" parent="1" source="a_scWwqzRaStGfmflHEY-31" target="a_scWwqzRaStGfmflHEY-28" edge="1">
          <mxGeometry width="50" height="50" relative="1" as="geometry">
            <mxPoint x="539" y="665" as="sourcePoint" />
            <mxPoint x="589" y="615" as="targetPoint" />
            <Array as="points">
              <mxPoint x="539" y="645" />
            </Array>
          </mxGeometry>
        </mxCell>
        <mxCell id="a_scWwqzRaStGfmflHEY-35" value="&lt;b&gt;Falso&lt;/b&gt;" style="edgeLabel;html=1;align=center;verticalAlign=middle;resizable=0;points=[];shadow=1;" parent="a_scWwqzRaStGfmflHEY-34" vertex="1" connectable="0">
          <mxGeometry x="-0.31" y="-12" relative="1" as="geometry">
            <mxPoint x="1" y="-2" as="offset" />
          </mxGeometry>
        </mxCell>
        <mxCell id="a_scWwqzRaStGfmflHEY-36" value="" style="curved=1;endArrow=classic;html=1;rounded=0;exitX=0;exitY=0.5;exitDx=0;exitDy=0;entryX=0;entryY=0.5;entryDx=0;entryDy=0;shadow=1;" parent="1" source="a_scWwqzRaStGfmflHEY-27" target="a_scWwqzRaStGfmflHEY-31" edge="1">
          <mxGeometry width="50" height="50" relative="1" as="geometry">
            <mxPoint x="539" y="665" as="sourcePoint" />
            <mxPoint x="589" y="615" as="targetPoint" />
            <Array as="points">
              <mxPoint x="259" y="885" />
              <mxPoint x="259" y="645" />
            </Array>
          </mxGeometry>
        </mxCell>
        <mxCell id="a_scWwqzRaStGfmflHEY-37" value="" style="curved=1;endArrow=classic;html=1;rounded=0;entryX=0.5;entryY=0;entryDx=0;entryDy=0;exitX=0;exitY=0.5;exitDx=0;exitDy=0;shadow=1;fontStyle=1" parent="1" source="a_scWwqzRaStGfmflHEY-19" target="a_scWwqzRaStGfmflHEY-32" edge="1">
          <mxGeometry width="50" height="50" relative="1" as="geometry">
            <mxPoint x="539" y="665" as="sourcePoint" />
            <mxPoint x="589" y="615" as="targetPoint" />
            <Array as="points">
              <mxPoint x="179" y="405" />
            </Array>
          </mxGeometry>
        </mxCell>
        <mxCell id="a_scWwqzRaStGfmflHEY-38" value="&lt;b&gt;Falso&lt;/b&gt;" style="edgeLabel;html=1;align=center;verticalAlign=middle;resizable=0;points=[];shadow=1;" parent="a_scWwqzRaStGfmflHEY-37" vertex="1" connectable="0">
          <mxGeometry x="-0.275" y="15" relative="1" as="geometry">
            <mxPoint x="42" y="13" as="offset" />
          </mxGeometry>
        </mxCell>
        <mxCell id="a_scWwqzRaStGfmflHEY-39" value="&lt;div&gt;&lt;b&gt;&lt;u&gt;2. COMPLEJIDAD CICLOMÁTICA:&lt;/u&gt;&lt;/b&gt;&lt;/div&gt;&lt;b&gt;V(G) =&amp;nbsp;a - n + 2 = 10 - 8 + 2 = 4&lt;/b&gt;&lt;div&gt;&lt;b&gt;V(G) = c + 1 = 3 + 1 = 4&lt;br&gt;V(G) = r = 4&lt;/b&gt;&lt;/div&gt;" style="text;html=1;align=center;verticalAlign=middle;resizable=0;points=[];autosize=1;strokeColor=none;fillColor=none;shadow=1;" parent="1" vertex="1">
          <mxGeometry x="755" y="245" width="220" height="70" as="geometry" />
        </mxCell>
        <mxCell id="a_scWwqzRaStGfmflHEY-40" value="&lt;font color=&quot;#ff0a0a&quot;&gt;&lt;b&gt;R1&lt;/b&gt;&lt;/font&gt;" style="ellipse;whiteSpace=wrap;html=1;aspect=fixed;strokeColor=#FF0A0A;shadow=1;" parent="1" vertex="1">
          <mxGeometry x="479" y="525" width="40" height="40" as="geometry" />
        </mxCell>
        <mxCell id="a_scWwqzRaStGfmflHEY-41" value="&lt;font color=&quot;#ff0a0a&quot;&gt;&lt;b&gt;R2&lt;/b&gt;&lt;/font&gt;" style="ellipse;whiteSpace=wrap;html=1;aspect=fixed;strokeColor=#FF0A0A;shadow=1;" parent="1" vertex="1">
          <mxGeometry x="439" y="685" width="40" height="40" as="geometry" />
        </mxCell>
        <mxCell id="a_scWwqzRaStGfmflHEY-42" value="&lt;font style=&quot;&quot; color=&quot;#ff0a0a&quot;&gt;R3&lt;/font&gt;" style="ellipse;whiteSpace=wrap;html=1;aspect=fixed;strokeColor=#FF0A0A;shadow=1;fontStyle=1" parent="1" vertex="1">
          <mxGeometry x="279" y="745" width="40" height="40" as="geometry" />
        </mxCell>
        <mxCell id="a_scWwqzRaStGfmflHEY-43" value="&lt;font color=&quot;#ff0a0a&quot;&gt;&lt;b&gt;R4&lt;/b&gt;&lt;/font&gt;" style="ellipse;whiteSpace=wrap;html=1;aspect=fixed;strokeColor=#FF0A0A;shadow=1;" parent="1" vertex="1">
          <mxGeometry x="499" y="845" width="40" height="40" as="geometry" />
        </mxCell>
        <mxCell id="a_scWwqzRaStGfmflHEY-44" value="&lt;div&gt;&lt;b&gt;&lt;u&gt;3. CONJUNTO DE CAMINOS INDEPENDIENTES:&lt;/u&gt;&lt;/b&gt;&lt;/div&gt;&lt;div&gt;&lt;b&gt;1: 1-2-8&lt;/b&gt;&lt;/div&gt;&lt;div&gt;&lt;b&gt;2:&amp;nbsp;&lt;/b&gt;&lt;b style=&quot;background-color: initial;&quot;&gt;1-2-3-4-7-2-8&lt;/b&gt;&lt;/div&gt;&lt;div&gt;&lt;b&gt;3:&amp;nbsp;&lt;/b&gt;&lt;b style=&quot;background-color: initial;&quot;&gt;1-2-3-4-5-7-2-8&lt;/b&gt;&lt;/div&gt;&lt;div&gt;&lt;b&gt;4: 1-2-3-4-5-6-4-7-2-8&lt;/b&gt;&lt;/div&gt;" style="text;html=1;align=center;verticalAlign=middle;resizable=0;points=[];autosize=1;strokeColor=none;fillColor=none;shadow=1;" parent="1" vertex="1">
          <mxGeometry x="715" y="315" width="300" height="90" as="geometry" />
        </mxCell>
        <mxCell id="iftXPG_NBNdC4ZWBvDt0-1" value="&lt;b&gt;&lt;u&gt;4. CASOS DE PRUEBA:&lt;/u&gt;&lt;/b&gt;&lt;div&gt;&lt;b&gt;1: data = [] (lista vacía) o&amp;nbsp; data = [1] (lista con un solo elemento)&lt;/b&gt;&lt;/div&gt;&lt;div&gt;&lt;b&gt;2: No tiene solución (nunca se ejecuta)&lt;/b&gt;&lt;/div&gt;&lt;div&gt;&lt;b&gt;3: data = [1, 2] (lista con más de un elemento y ordenada)&lt;/b&gt;&lt;/div&gt;&lt;div&gt;&lt;b&gt;4: data = [2, 1] (lista con más de un elemento y no ordenada)&lt;/b&gt;&lt;/div&gt;" style="text;html=1;align=center;verticalAlign=middle;resizable=0;points=[];autosize=1;strokeColor=none;fillColor=none;shadow=1;" parent="1" vertex="1">
          <mxGeometry x="675" y="405" width="380" height="90" as="geometry" />
        </mxCell>
        <mxCell id="iftXPG_NBNdC4ZWBvDt0-2" value="&lt;div&gt;&lt;b&gt;&lt;u&gt;5. CAMINOS CON BUCLES:&lt;/u&gt;&lt;/b&gt;&lt;/div&gt;&lt;div&gt;&lt;b&gt;Bucle &quot;for&quot;:&lt;/b&gt;&lt;/div&gt;&lt;div&gt;&lt;b&gt;- Se ejecuta 0 veces -&amp;gt; data = [] o data = [1]&lt;/b&gt;&lt;/div&gt;&lt;div&gt;&lt;b&gt;- Se ejecuta 1 vez -&amp;gt; data = [1, 2]&lt;/b&gt;&lt;/div&gt;&lt;div&gt;&lt;b&gt;- Se ejecuta 2 veces -&amp;gt; data = [1, 2, 3]&lt;/b&gt;&lt;/div&gt;&lt;div&gt;&lt;b style=&quot;background-color: initial;&quot;&gt;- Se ejecuta N veces -&amp;gt; len(data) = N-1&lt;/b&gt;&lt;br&gt;&lt;/div&gt;&lt;div&gt;&lt;b&gt;&lt;br&gt;&lt;/b&gt;&lt;/div&gt;&lt;div&gt;&lt;b style=&quot;background-color: initial;&quot;&gt;Bucle while (fijar bucle for a 5 ejecuciones):&lt;/b&gt;&lt;/div&gt;&lt;div&gt;&lt;b style=&quot;background-color: initial;&quot;&gt;- Se ejecuta 0 veces -&amp;gt; data = [1, 2, 3, 4, 5] (Todos ordenado)&lt;/b&gt;&lt;/div&gt;&lt;div&gt;&lt;b style=&quot;background-color: initial;&quot;&gt;- Se ejecuta 1 vez -&amp;gt; data = [2, 1, 3, 4, 5] (2 elementos desordenados)&lt;/b&gt;&lt;/div&gt;&lt;div&gt;&lt;b style=&quot;background-color: initial;&quot;&gt;- Se ejecuta 2 veces -&amp;gt; data = [2, 1, 3, 5, 4] (4 elementos desordenados&lt;/b&gt;&lt;/div&gt;&lt;div&gt;&lt;b style=&quot;background-color: initial;&quot;&gt;- Se ejecuta N veces (N=3) -&amp;gt; data = [2, 1, 5, 3, 4] (Se recorre 3 veces)&lt;/b&gt;&lt;/div&gt;" style="text;html=1;align=center;verticalAlign=middle;resizable=0;points=[];autosize=1;strokeColor=none;fillColor=none;shadow=1;" parent="1" vertex="1">
          <mxGeometry x="655" y="495" width="420" height="190" as="geometry" />
        </mxCell>
      </root>
    </mxGraphModel>
  </diagram>
</mxfile>
